<?xml version="1.0" encoding="UTF-8" standalone="no"?>
<svg xmlns="http://www.w3.org/2000/svg" version="1.0">
  <g
     fill="#27628a"
     stroke="none">
    <path
       d="M0 5120 l0 -5120 3000 0 3000 0 0 5120 0 5120 -3000 0 -3000 0 0 -5120z" />
  </g>
  <g
     fill="#7fcae7"
     stroke="none">
    <path
       d="M 0,5120 V 0 h 3000 3000 v 5120 5120 H 3000 0 Z m 3041,3965 c 257.1951,-231.2173 270.8768,-244.4494 1132,-978 100.0843,-559.7796 173.9788,-986.5359 279,-1586 -165.7863,-405.0485 -178.8353,-430.8722 -292,-721 650.6072,-1421.1218 667.3936,-1452.2872 1190,-2550 -2109.4504,-0.035 -2130.9695,-0.025 -4468.86586,0.037 72.33788,69.7996 74.76441,71.6861 148.86586,140.963 -129.0483,91.5488 -134.68166,93.6858 -367,225 175.86245,383.2532 323.97381,668.4741 527,1073 35.6121,292.0899 72.3384,584.0406 109,876 5.074,391.6586 9.0034,783.3294 13,1175 314.3202,597.9247 654.4179,1182.5892 964,1783 88.7542,312.5107 121.9361,512.8332 194,862 95.2778,168.6736 102.3771,181.1881 273,473 113.1881,-286.567 245.9452,-613.0146 298,-773 z" />
  </g>
  <g
     fill="#c0dede"
     stroke="none">
    <path
       d="M0 1625 l0 -1625 3000 0 3000 0 0 1625 0 1625 -3000 0 -3000 0 0 -1625z" />
  </g>
  <g
     fill="#ffffff"
     stroke="none">
    <path
       d="M 881.01695,3249.9206 C 1286.0459,3091.4742 1546.5278,3035.4925 1889,2924 c 129.95,-482.4131 173.4726,-686.2614 331,-1262 132.796,95.3371 216.2935,142.9991 359,242 116.2556,-360.389 199.5642,-636.2515 320,-1025 108.0281,-100.84978 136.3812,-131.67871 296,-299 10,0 254,309 487,616 83.6789,470.193 92.832,516.3155 215,1032 422.9371,260.0129 459.4089,278.2641 878,528 0,69.3333 0,138.6667 0,208 253.7343,134.9322 263.2776,139.2776 570,286 H 3107 c -2226,0 -2219.49894,-0.1145 -2225.98305,-0.079 z" />
  </g>
</svg>
