P3
# A metadata
3 2 1
1 0 1   0 1 0   0 0 1
# And an other one
1 1 0   1 0 1   1 0 0
  # and a final one here

